HIERARCHY
ROOT RootJoint
{
    OFFSET   0.000000   0.000000   0.000000
    CHANNELS 6 Xposition Yposition Zposition Xrotation Yrotation Zrotation
    JOINT pelvis_lowerback
    {
        OFFSET   0.000000   0.093605   0.000000
        CHANNELS 3 Xrotation Yrotation Zrotation
        JOINT lowerback_torso
        {
            OFFSET   0.000000   0.100000   0.000000
            CHANNELS 3 Xrotation Yrotation Zrotation
            JOINT torso_head
            {
                OFFSET   0.000000   0.282350   0.000000
                CHANNELS 3 Xrotation Yrotation Zrotation
                End Site
                {
                    OFFSET   0.000000   0.192650   0.000000
                }
            }
            JOINT rTorso_Clavicle
            {
                OFFSET  -0.001000   0.157500   0.000000
                CHANNELS 3 Xrotation Yrotation Zrotation
                JOINT rShoulder
                {
                    OFFSET  -0.117647   0.000000   0.000000
                    CHANNELS 3 Xrotation Yrotation Zrotation
                    JOINT rElbow
                    {
                        OFFSET  -0.245000   0.000000   0.000000
                        CHANNELS 3 Xrotation Yrotation Zrotation
                        JOINT rWrist
                        {
                            OFFSET  -0.240000   0.000000   0.000000
                            CHANNELS 3 Xrotation Yrotation Zrotation
                            End Site
                            {
                                OFFSET  -0.116353  -0.002500   0.000000
                            }
                        }
                    }
                }
            }
            JOINT lTorso_Clavicle
            {
                OFFSET   0.001000   0.157500   0.000000
                CHANNELS 3 Xrotation Yrotation Zrotation
                JOINT lShoulder
                {
                    OFFSET   0.117647   0.000000   0.000000
                    CHANNELS 3 Xrotation Yrotation Zrotation
                    JOINT lElbow
                    {
                        OFFSET   0.245000   0.000000   0.000000
                        CHANNELS 3 Xrotation Yrotation Zrotation
                        JOINT lWrist
                        {
                            OFFSET   0.240000   0.000000   0.000000
                            CHANNELS 3 Xrotation Yrotation Zrotation
                            End Site
                            {
                                OFFSET   0.116353  -0.002500   0.000000
                            }
                        }
                    }
                }
            }
        }
    }
    JOINT rHip
    {
        OFFSET  -0.100000  -0.051395   0.000000
        CHANNELS 3 Xrotation Yrotation Zrotation
        JOINT rKnee
        {
            OFFSET   0.000000  -0.410000   0.000000
            CHANNELS 3 Xrotation Yrotation Zrotation
            JOINT rAnkle
            {
                OFFSET   0.000000  -0.390000   0.000000
                CHANNELS 3 Xrotation Yrotation Zrotation
                JOINT rToeJoint
                {
                    OFFSET   0.000000  -0.050000   0.130000
                    CHANNELS 3 Xrotation Yrotation Zrotation
                    End Site
                    {
                        OFFSET  -0.010000   0.002000   0.060000
                    }
                }
            }
        }
    }
    JOINT lHip
    {
        OFFSET   0.100000  -0.051395   0.000000
        CHANNELS 3 Xrotation Yrotation Zrotation
        JOINT lKnee
        {
            OFFSET   0.000000  -0.410000   0.000000
            CHANNELS 3 Xrotation Yrotation Zrotation
            JOINT lAnkle
            {
                OFFSET   0.000000  -0.390000   0.000000
                CHANNELS 3 Xrotation Yrotation Zrotation
                JOINT lToeJoint
                {
                    OFFSET   0.000000  -0.050000   0.130000
                    CHANNELS 3 Xrotation Yrotation Zrotation
                    End Site
                    {
                        OFFSET   0.010000   0.002000   0.060000
                    }
                }
            }
        }
    }
}
MOTION
Frames: 8
Frame Time:   0.008333
 -2.376719   0.925631   3.975860   0.000000   0.000000   0.000000   0.000000   0.000000   0.000000   0.000000   0.000000   0.000000   0.000000   0.000000   0.000000   0.000000   0.000000   0.000000   0.000000   0.000000   0.000000   0.000000   0.000000   0.000000   0.000000   0.000000   0.000000   0.000000   0.000000   0.000000   0.000000   0.000000   0.000000   0.000000   0.000000   0.000000   0.000000   0.000000   0.000000   0.000000   0.000000   0.000000   0.000000   0.000000   0.000000   0.000000   0.000000   0.000000   0.000000   0.000000   0.000000   0.000000   0.000000   0.000000   0.000000   0.000000   0.000000   0.000000   0.000000   0.000000   0.000000   0.000000   0.000000
 -2.376649   0.925650   3.974094  -0.014523  -0.115515  -0.061774   0.282765   0.346701  -0.007525   0.307734  -0.055902   0.202354  -0.267925   0.250040  -0.107979   0.256368  -0.885962  -0.301268   0.381045  -0.503639   1.763746   0.052930   3.727268  -0.040683   0.102366  -0.891757  -1.704972  -0.143438  -0.030285  -0.205175  -0.216491   0.385060  -1.801614   0.039590  -2.415587   0.005225   0.036768   0.851646   2.255120  -1.338457   0.113065  -0.128466   2.883625   0.004850  -0.000204  -1.769750  -0.440056  -0.122752  -0.189641  -0.000522   0.000728  -0.841161  -0.183834   0.304010   2.862499  -0.006247  -0.007255  -2.965383  -0.302001  -0.451149   0.219975   0.000408  -0.001169
 -2.376608   0.925624   3.972119  -0.188092  -0.217759  -0.110772   0.688667   0.647863  -0.013234   0.795498  -0.159882   0.386349  -0.450994   0.503156  -0.189369   0.506730  -1.766652  -0.125910   0.750050  -0.938382   3.780878   0.125763   7.547262  -0.078248   0.252765  -0.891464  -2.919535  -0.276608  -0.115820  -0.975289  -0.416834   0.667346  -3.941040   0.089132  -4.755179   0.012918   0.082672   1.038855   3.903287  -2.737918   0.215394  -0.428578   5.840504   0.013033  -0.001257  -3.410552  -0.855947  -0.253301  -0.384014  -0.001245   0.001299  -1.414588  -0.376858   0.782950   5.898856  -0.017343  -0.012211  -5.734515  -0.565379  -0.887730   0.328164   0.000327  -0.001471
 -2.376636   0.925251   3.970072  -0.387830  -0.293308  -0.141432   1.119838   0.875770  -0.033385   1.323035  -0.309144   0.536494  -0.598243   0.740683  -0.255401   0.748813  -2.577192   0.372796   1.108084  -1.317989   5.914527   0.202692  11.377176  -0.108545   0.407074  -0.683804  -3.597118  -0.401942  -0.258022  -2.087417  -0.598124   0.884777  -6.230914   0.136360  -6.962434   0.020176   0.134912   0.996806   4.900084  -4.203415   0.318640  -0.870786   8.587467   0.021910  -0.002818  -4.941105  -1.243441  -0.388766  -0.558224  -0.001934   0.001632  -1.790676  -0.557606   1.401564   8.824927  -0.030208  -0.013207  -8.315548  -0.787541  -1.306771   0.438213   0.000089  -0.001637
 -2.376739   0.924329   3.968021  -0.580846  -0.342321  -0.156864   1.555169   1.036963  -0.072567   1.847324  -0.496779   0.655164  -0.728867   0.961965  -0.313226   0.985953  -3.315404   1.074539   1.458685  -1.644741   8.082478   0.273057  15.138592  -0.131101   0.555285  -0.404524  -3.862277  -0.522992  -0.446923  -3.393533  -0.760811   1.051452  -8.566877   0.176020  -9.037614   0.026451   0.188580   0.852166   5.418044  -5.726302   0.431094  -1.423827  11.102074   0.030115  -0.004723  -6.372610  -1.603561  -0.526924  -0.725418  -0.002586   0.001830  -2.010250  -0.726213   2.136240  11.601973  -0.042854  -0.010990 -10.724479  -0.973676  -1.707008   0.538916  -0.000220  -0.001655
 -2.376905   0.922712   3.966023  -0.759351  -0.363270  -0.160664   1.985291   1.142554  -0.129972   2.354775  -0.713255   0.747187  -0.848090   1.167679  -0.365870   1.218195  -3.981316   1.894133   1.801383  -1.917677  10.228585   0.327110  18.659511  -0.144915   0.698758  -0.049306  -3.838095  -0.643427  -0.673857  -4.796211  -0.907057   1.175602 -10.882567   0.206279 -10.986603   0.031595   0.242575   0.645486   5.609116  -7.286620   0.558195  -2.061819  13.399677   0.037022  -0.006714  -7.711955  -1.937756  -0.665946  -0.886082  -0.003165   0.001926  -2.098293  -0.884249   2.965167  14.229801  -0.054096  -0.006484 -12.973100  -1.128972  -2.087774   0.629554  -0.000536  -0.001568
 -2.377118   0.920298   3.964123  -0.921521  -0.359310  -0.155354   2.404213   1.200261  -0.202827   2.840220  -0.954138   0.816906  -0.957938   1.359342  -0.414927   1.446457  -4.591616   2.771510   2.136647  -2.153408  12.315248   0.364141  21.947306  -0.151625   0.831762   0.309847  -3.620071  -0.765442  -0.923964  -6.231076  -1.039090   1.268337 -13.136170   0.227071 -12.814803   0.035587   0.295884   0.399813   5.584300  -8.864959   0.703824  -2.763291  15.500530   0.042387  -0.008642  -8.964975  -2.247518  -0.804312  -1.038988  -0.003639   0.001943  -2.074006  -1.032023   3.867741  16.714208  -0.063316  -0.000630 -15.071922  -1.257981  -2.448754   0.711427  -0.000824  -0.001422
 -2.377007   0.916646   3.962017  -0.916983  -0.589210  -0.156306   2.791084   1.292340  -0.124647   3.120222  -1.216637   0.771340  -1.138672   1.400137  -0.364225   1.559859  -5.054096   3.233532   2.765088  -2.214662  14.226260   0.391961  25.590828  -0.164439   0.883712   0.221023  -2.884261  -0.931754  -0.872035  -7.124406  -1.190983   1.331555 -15.604423   0.242051 -14.787694   0.036969   0.333905   0.236658   5.069968 -10.981073   0.610010  -3.568737  18.506789   0.051937  -0.026685 -10.349154  -2.791951  -0.872170  -1.203676  -0.004194   0.003080  -1.863575  -1.039694   4.823429  18.010374  -0.061682   0.001215 -16.762573  -1.360441  -2.709822   0.895451  -0.001784  -0.001662
